<?xml version="1.0" encoding="utf-8"?>
<!-- Generator: Adobe Illustrator 19.2.1, SVG Export Plug-In . SVG Version: 6.00 Build 0)  -->
<svg version="1.1" id="Layer_1" xmlns="http://www.w3.org/2000/svg" xmlns:xlink="http://www.w3.org/1999/xlink" x="0px" y="0px"
	 viewBox="0 0 298 345.1" style="enable-background:new 0 0 298 345.1;" xml:space="preserve">
<style type="text/css">
	.st0{fill:#DEDEDE;}
	.st1{fill:#D22856;}
</style>
<path class="st0" d="M264.6,102.1l5.4-5.4c7.7-7.7,9.1-18.9,3.1-24.9s-17.2-4.6-24.9,3.1l-5.4,5.4c-21-17-46.6-28.4-74.7-32v-9.6
	h7.7c10.9,0,19.8-8.7,19.8-19.4S186.6,0,175.7,0h-53.3c-10.9,0-19.8,8.7-19.8,19.4s8.9,19.4,19.8,19.4h7.7v9.6
	C56.7,57.6,0,120.2,0,196.1c0,82.3,66.7,149,149,149s149-66.7,149-149C298,160.4,285.5,127.7,264.6,102.1z M149,306.3
	c-60.8,0-110.2-49.3-110.2-110.2c0-60.8,49.3-110.2,110.2-110.2c60.8,0,110.2,49.3,110.2,110.2C259.2,256.9,209.8,306.3,149,306.3z"
	/>
<path class="st1" d="M149,69.6c-69.9,0-126.5,56.7-126.5,126.5c0,69.9,56.6,126.5,126.5,126.5S275.5,266,275.5,196.1
	C275.5,126.3,218.9,69.6,149,69.6z M149,306.9c-60.8,0-110.2-49.3-110.2-110.2c0-60.8,49.3-110.2,110.2-110.2
	c60.8,0,110.2,49.3,110.2,110.2C259.2,257.5,209.8,306.9,149,306.9z"/>
</svg>
